<svg class="svg-icon" style="width: 1em;height: 1em;vertical-align: middle;fill: currentColor;overflow: hidden;" viewBox="0 0 1024 1024" version="1.1" xmlns="http://www.w3.org/2000/svg"><path d="M0 512C0 229.226667 229.226667 0 512 0s512 229.226667 512 512-229.226667 512-512 512S0 794.773333 0 512z" fill="#333333" /><path d="M409.6 819.2a102.4 102.4 0 0 0 102.4-102.4v-102.4h-102.4a102.4 102.4 0 1 0 0 204.8z" fill="#0ACF83" /><path d="M307.2 512a102.4 102.4 0 0 1 102.4-102.4H512v204.8h-102.4a102.4 102.4 0 0 1-102.4-102.4z" fill="#A259FF" /><path d="M307.2 307.2a102.4 102.4 0 0 1 102.4-102.4H512v204.8h-102.4a102.4 102.4 0 0 1-102.4-102.4z" fill="#F24E1E" /><path d="M512 204.8h102.4a102.4 102.4 0 1 1 0 204.8H512V204.8z" fill="#FF7262" /><path d="M716.8 512a102.4 102.4 0 1 1-204.8 0 102.4 102.4 0 0 1 204.8 0z" fill="#1ABCFE" /></svg>