<svg xmlns="http://www.w3.org/2000/svg" width="748" height="500" fill="none" viewBox="0 0 748 500"><g fill="#fff" clip-path="url(#a)"><path d="M403.265 314.021c-7.479 16.8-30.49 22.873-51.394 13.566-20.905-9.307-31.788-30.471-24.308-47.271 7.479-16.8 30.489-22.873 51.394-13.566s31.788 30.471 24.308 47.271m125.173 72.444c21.885 6.273 43.716-2.895 48.76-20.479 5.044-17.583-8.609-36.923-30.495-43.196s-43.717 2.895-48.761 20.479c-5.044 17.583 8.61 36.923 30.496 43.196M224.962 179.541c19.306 12.067 27.1 34.425 17.408 49.939s-33.2 18.309-52.506 6.242c-19.307-12.067-27.101-34.425-17.409-49.939s33.2-18.309 52.507-6.242"/><path fill-rule="evenodd" d="M486.928 24.156C585.7 68.132 649.103 164.078 651.632 271.288c58.144 45.761 115.925 109.815 89.052 170.172-30.137 67.689-137.472 64.904-259.473 30.651-58.767 32.537-131.672 38.099-197.616 8.739-65.943-29.36-110.575-87.214-125.736-152.704C50.769 260.401-23.121 182.498 7.015 114.809c26.873-60.356 113.138-60.277 186.05-47.688C274.43-2.737 388.157-19.82 486.928 24.156M58.209 137.602c-14.64 32.884 63.998 126.214 279.331 222.086s337.31 91.863 351.951 58.979c12.117-27.217-37.74-79.532-94.835-120.069-44.411-31.743-105.242-66.731-184.592-102.06-21.597-9.615-30.031-35.278-20.95-55.674s29.032-34.035 71.033-35.976c19.771-.06 22.366-5.543 23.27-10.243 1.12-7.251-8.931-14.642-19.298-19.258-82.422-36.696-183.319-21.306-253.256 52.335-68.329-15.305-140.536-17.336-152.654 9.88" clip-rule="evenodd"/></g><defs><clipPath id="a"><path fill="#fff" d="M.234 0h747.233v500H.234z"/></clipPath></defs></svg>