<?xml version="1.0" encoding="UTF-8"?>
<svg id="Layer_2" data-name="Layer 2" xmlns="http://www.w3.org/2000/svg" xmlns:xlink="http://www.w3.org/1999/xlink" viewBox="0 0 120.24 32">
  <defs>
    <style>
      .cls-1 {
        fill: url(#linear-gradient);
        fill-rule: evenodd;
      }

      .cls-1, .cls-2, .cls-3, .cls-4 {
        stroke-width: 0px;
      }

      .cls-3 {
        fill: #4000bf;
      }

      .cls-4 {
        fill: #fff;
      }
    </style>
    <linearGradient id="linear-gradient" x1="16.18" y1="5.61" x2="16.18" y2="28.39" gradientTransform="translate(0 33) scale(1 -1)" gradientUnits="userSpaceOnUse">
      <stop offset="0" stop-color="#7400e1"/>
      <stop offset="1" stop-color="#4000bf"/>
    </linearGradient>
  </defs>
  <g id="Layer_1-2" data-name="Layer 1">
    <g>
      <path class="cls-4" d="m16,31.19c8.39,0,15.19-6.8,15.19-15.19S24.39.81,16,.81.81,7.61.81,16s6.8,15.19,15.19,15.19Z"/>
      <path class="cls-3" d="m16,0C7.16,0,0,7.16,0,16s7.16,16,16,16,16-7.16,16-16S24.84,0,16,0Zm0,1.63c7.94,0,14.37,6.43,14.37,14.37s-6.43,14.37-14.37,14.37S1.63,23.94,1.63,16,8.06,1.63,16,1.63Z"/>
      <path class="cls-1" d="m16.18,4.61c6.29,0,11.39,5.1,11.39,11.39s-5.1,11.39-11.39,11.39-11.39-5.1-11.39-11.39c0-1.54.3-3,.86-4.34.81,1.1,2.11,1.81,3.57,1.81,2.45,0,4.43-1.98,4.43-4.43,0-1.47-.71-2.77-1.81-3.57,1.34-.55,2.8-.86,4.34-.86Z"/>
      <path class="cls-2" d="m47.41,8.91h-1.98v13.09h1.98v-13.09Zm4.63,7.26c0-1.57.96-2.46,2.29-2.46s2.08.85,2.08,2.28v6.01h1.91v-6.24c0-2.43-1.34-3.7-3.34-3.7-1.48,0-2.44.68-2.9,1.73h-.12v-1.6h-1.83v9.82h1.91v-5.83Zm16.2-1.59c-.4-1.53-1.59-2.52-3.71-2.52s-3.79,1.17-3.79,2.91c0,1.39.84,2.32,2.68,2.73l1.66.36c.95.21,1.39.63,1.39,1.25,0,.76-.81,1.36-2.06,1.36-1.14,0-1.88-.49-2.11-1.46l-1.85.28c.32,1.74,1.76,2.72,3.97,2.72,2.37,0,4.01-1.26,4.01-3.04,0-1.39-.88-2.24-2.68-2.66l-1.56-.36c-1.08-.26-1.55-.62-1.54-1.28,0-.75.81-1.29,1.9-1.29,1.19,0,1.74.66,1.96,1.32l1.73-.31Zm6.43,7.62c2.77,0,4.58-2.03,4.58-5.06s-1.81-5.08-4.58-5.08-4.58,2.03-4.58,5.08,1.81,5.06,4.58,5.06Zm0-1.6c-1.81,0-2.65-1.58-2.65-3.46s.84-3.48,2.65-3.48,2.64,1.6,2.64,3.48-.84,3.46-2.64,3.46Zm6.7,1.41h1.91v-6.05c0-1.32.93-2.24,2.01-2.24s1.8.7,1.8,1.77v6.53h1.9v-6.26c0-1.18.72-2.04,1.97-2.04,1.01,0,1.84.56,1.84,1.89v6.4h1.91v-6.58c0-2.24-1.25-3.36-3.03-3.36-1.41,0-2.47.68-2.95,1.73h-.1c-.43-1.07-1.33-1.73-2.64-1.73s-2.26.65-2.67,1.73h-.12v-1.6h-1.83v9.82Zm17.82-5.83c0-1.57.96-2.46,2.29-2.46s2.08.85,2.08,2.28v6.01h1.91v-6.24c0-2.43-1.34-3.7-3.34-3.7-1.48,0-2.44.68-2.9,1.73h-.12v-1.6h-1.83v9.82h1.91v-5.83Zm8.85,5.83h1.91v-9.82h-1.91v9.82Zm.96-11.33c.66,0,1.21-.51,1.21-1.14s-.55-1.14-1.21-1.14-1.21.52-1.21,1.14.54,1.14,1.21,1.14Zm6.38,11.55c1.62,0,2.54-.82,2.9-1.56h.08v1.34h1.87v-6.52c0-2.86-2.25-3.43-3.81-3.43-1.78,0-3.41.72-4.05,2.51l1.8.41c.28-.7,1-1.37,2.28-1.37s1.87.65,1.87,1.76v.04c0,.7-.72.68-2.48.89-1.86.22-3.76.7-3.76,2.93,0,1.93,1.45,2.99,3.32,2.99Zm.42-1.53c-1.08,0-1.86-.49-1.86-1.43,0-1.02.91-1.39,2.01-1.53.62-.08,2.09-.25,2.37-.52v1.27c0,1.16-.93,2.22-2.52,2.22Z"/>
    </g>
  </g>
</svg>