<svg class="svg-icon" style="width: 1em;height: 1em;vertical-align: middle;fill: currentColor;overflow: hidden;" viewBox="0 0 1024 1024" version="1.1" xmlns="http://www.w3.org/2000/svg"><path d="M512 143.36a368.708267 368.708267 0 0 0-358.126933 282.719573 389.358933 219.303253 0 0 1 358.126933-133.300906 389.358933 219.303253 0 0 1 358.263467 134.01088 368.708267 368.708267 0 0 0-358.263467-283.43296z m-358.263467 454.007467a368.708267 368.708267 0 0 0 358.263467 283.43296 368.708267 368.708267 0 0 0 358.126933-282.719574 389.358933 219.303253 0 0 1-358.126933 133.300907 389.358933 219.303253 0 0 1-358.263467-134.01088z" fill="#F57C00" /><path d="M209.92 910.677333m-77.233493 0a77.233493 77.233493 0 1 0 154.466986 0 77.233493 77.233493 0 1 0-154.466986 0Z" fill="#9E9E9E" /><path d="M158.037333 165.888m-56.71936 0a56.71936 56.71936 0 1 0 113.43872 0 56.71936 56.71936 0 1 0-113.43872 0Z" fill="#616161" /><path d="M825.344 114.005333m-72.40704 0a72.40704 72.40704 0 1 0 144.81408 0 72.40704 72.40704 0 1 0-144.81408 0Z" fill="#757575" /></svg>