<?xml version="1.0" encoding="UTF-8" standalone="no"?><!DOCTYPE svg PUBLIC "-//W3C//DTD SVG 1.1//EN" "http://www.w3.org/Graphics/SVG/1.1/DTD/svg11.dtd"><svg width="100%" height="100%" viewBox="0 0 474 246" version="1.1" xmlns="http://www.w3.org/2000/svg" xmlns:xlink="http://www.w3.org/1999/xlink" xml:space="preserve" xmlns:serif="http://www.serif.com/" style="fill-rule:evenodd;clip-rule:evenodd;stroke-linejoin:round;stroke-miterlimit:2;"><g><path d="M393.117,152.885l-359.59,0c-9.922,0 -17.966,-8.043 -17.966,-17.966l-0,-20.748c0,-27.492 10.921,-53.858 30.361,-73.298c19.44,-19.44 45.806,-30.361 73.298,-30.361l297.897,0l-0,35.931l-297.897,-0c-17.963,-0 -35.189,7.136 -47.891,19.837c-12.701,12.701 -19.837,29.928 -19.837,47.891l-0,2.783l362.146,0c9.922,0 17.966,8.044 17.966,17.966c-0,26.722 -10.657,52.34 -29.61,71.177c-18.952,18.837 -44.635,29.338 -71.356,29.176l-320.126,-1.948l0.219,-35.931l320.126,1.948c17.154,0.104 33.641,-6.637 45.808,-18.73c7.816,-7.768 13.434,-17.333 16.453,-27.728Z" style="fill:#333;"/><path d="M54.583,113.84c359.298,-0.053 359.306,-0.111 360.678,0.002c11.615,0.958 19.419,10.565 19.513,20.805c0.228,24.925 -9.836,44.32 -10.001,44.667c-17.24,36.318 -53.972,59.373 -94.15,59.128l-320.131,-1.962c-1.708,-0.011 -3.144,-1.444 -3.135,-3.176c0.061,-11.977 0.132,-23.954 0.221,-35.931c0.013,-1.72 1.468,-3.142 3.172,-3.132c318.536,1.97 318.592,2.724 328.469,1.462c15.594,-1.994 26.125,-9.801 27.714,-10.931c13.505,-9.602 19.554,-22.376 21.913,-28.782c-348.538,-0.476 -348.587,0.053 -356.901,-0.537c-10.162,-0.72 -18.989,-9.345 -18.977,-20.527c0.002,-1.924 0.023,-22.181 0.083,-24.052c1.849,-57.212 48.872,-102.806 106.166,-102.765c296.737,0.214 296.753,-0.063 298.253,0.177c1.056,0.169 1.894,1.114 1.895,2.225c0.003,2.906 0.032,36.015 -0.02,36.324c-0.185,1.11 -1.203,1.897 -2.227,1.899c-40.693,0.093 -298.42,0.598 -299.507,0.631c-22.158,0.666 -37.076,11.796 -44.437,19.327c-16.951,17.344 -18.513,37.183 -18.59,45.147Zm338.533,35.933c0.337,0.087 0.692,0.088 1.029,0.175c0.764,0.197 2.276,1.432 2.063,3.292c-0.002,0.014 -2.042,8.918 -8.533,18.791c-13.805,20.996 -36.53,30.55 -56.416,30.432c-105.799,-0.629 -211.597,-1.269 -317.396,-1.898l-0.177,29.623c315.602,1.904 315.629,2.455 326.018,1.548c49.912,-4.358 88.688,-46.149 88.727,-96.812c0.006,-8.121 -6.571,-14.798 -14.803,-14.798l-362.136,-0.058c-1.583,-0 -3.092,-1.282 -3.113,-3.115c-0.076,-6.563 -0.172,-22.838 11.02,-40.59c12.17,-19.304 34.365,-32.873 59.816,-32.819c98.544,0.208 197.088,0.421 295.631,0.629l0.021,-31.411c-294.311,0.154 -294.337,-0.344 -304.412,0.539c-52.182,4.573 -92.394,48.322 -92.329,100.875c0.025,20.297 -0.125,20.3 0.131,22.512c0.943,8.144 8.001,13.574 15.07,13.565c119.93,-0.157 239.859,-0.323 359.789,-0.48Z"/><path d="M462.715,134.931c-0,26.719 -10.655,52.335 -29.605,71.172c-18.949,18.837 -44.628,29.34 -71.347,29.181l-122.732,-0.73l0.214,-35.931l122.732,0.73c17.152,0.102 33.637,-6.64 45.802,-18.733c7.816,-7.77 13.434,-17.337 16.452,-27.736l-359.593,0c-9.922,0 -17.966,-8.043 -17.966,-17.966l0,-20.748c0,-57.249 46.41,-103.659 103.659,-103.659l88.752,0l-0,35.931l-88.752,0c-37.405,-0 -67.728,30.323 -67.728,67.728l-0,2.783l362.146,0c9.922,0 17.966,8.043 17.966,17.966c-0,0.004 0,0.008 -0,0.012Z" style="fill:#fff;"/><path d="M421.095,155.181l-356.466,0.76c-11.515,0.033 -21.064,-9.291 -21.071,-21.011c-0.001,-1.936 -0.013,-22.257 0.048,-24.199c1.802,-57.39 48.894,-103.365 106.721,-103.383l88.757,-0.008c1.725,0.001 3.17,1.439 3.172,3.172c0.013,11.977 0.015,23.954 -0.001,35.931c-0.002,1.73 -1.455,3.17 -3.171,3.171c-89.388,0.046 -89.41,-0.353 -96.169,0.419c-18.526,2.117 -32.816,11.794 -41.653,22.183c-14.071,16.54 -15.415,33.929 -15.5,41.571c354.528,0.057 354.54,-0.07 359.531,0.058c5.775,0.148 10.996,2.628 14.715,6.53c6.097,6.397 5.808,13.931 5.82,14.555c-0.038,3.375 1.08,40.696 -29.271,71.898c-19.596,20.145 -46.596,31.478 -74.805,31.26c-122.532,-0.945 -122.586,-0.726 -123.616,-1.117c-0.91,-0.346 -1.664,-1.293 -1.657,-2.433c0.018,-2.906 0.223,-35.906 0.294,-36.322c0.184,-1.067 1.136,-2.072 2.487,-2.072c61.758,-0.019 61.748,1.188 123.505,0.858c2.087,-0.011 17.309,0.18 32.577,-9.442c16.964,-10.691 23.415,-25.586 25.752,-32.38Zm38.517,-20.249l-0.009,-0c-0.176,-9.414 -7.652,-14.864 -14.863,-14.863c-362.093,0.051 -362.099,0.097 -362.631,0.013c-1.382,-0.219 -2.651,-1.438 -2.671,-3.128c-0.08,-6.749 -0.334,-26.041 14.341,-45.543c13.681,-18.181 35.169,-28.132 56.095,-28.135c28.68,-0.005 57.359,0.002 86.039,-0.003l-0.001,-29.588c-84.921,-0.006 -84.921,-0.172 -90.754,0.122c-53.052,2.674 -95.345,46.52 -95.365,100.37c-0.007,20.306 -0.153,20.308 0.091,22.453c0.834,7.321 7.05,13.179 14.764,13.201l359.583,0.772c1.298,-0 2.634,1.211 2.196,2.93c-0.825,3.239 -2.57,7.276 -2.836,7.892c-10.599,24.534 -34.863,40.407 -61.624,40.281c-40.08,-0.188 -80.159,-0.381 -120.239,-0.568l-0.114,30.866c119.386,0.466 119.392,0.803 127.438,0.234c24.33,-1.721 47.243,-12.517 64.086,-30.408c27.495,-29.204 26.43,-63.364 26.474,-66.898Z"/><path d="M462.715,134.931c-0,26.719 -10.655,52.335 -29.605,71.172c-18.949,18.837 -44.628,29.34 -71.347,29.181l-122.732,-0.73l0.214,-35.931l122.732,0.73c17.152,0.102 33.637,-6.64 45.802,-18.733c7.816,-7.77 13.434,-17.337 16.452,-27.736l-359.593,0c-9.922,0 -17.966,-8.043 -17.966,-17.966l0,-20.748c0,-57.249 46.41,-103.659 103.659,-103.659l88.752,0l-0,35.931l-88.752,0c-37.405,-0 -67.728,30.323 -67.728,67.728l-0,2.783l362.146,0c9.922,0 17.966,8.043 17.966,17.966c-0,0.004 0,0.008 -0,0.012Z" style="fill:#fff;"/><path d="M421.095,155.181l-356.466,0.76c-11.515,0.033 -21.064,-9.291 -21.071,-21.011c-0.001,-1.936 -0.013,-22.257 0.048,-24.199c1.802,-57.39 48.894,-103.365 106.721,-103.383l88.757,-0.008c1.725,0.001 3.17,1.439 3.172,3.172c0.013,11.977 0.015,23.954 -0.001,35.931c-0.002,1.73 -1.455,3.17 -3.171,3.171c-89.388,0.046 -89.41,-0.353 -96.169,0.419c-18.526,2.117 -32.816,11.794 -41.653,22.183c-14.071,16.54 -15.415,33.929 -15.5,41.571c354.528,0.057 354.54,-0.07 359.531,0.058c5.775,0.148 10.996,2.628 14.715,6.53c6.097,6.397 5.808,13.931 5.82,14.555c-0.038,3.375 1.08,40.696 -29.271,71.898c-19.596,20.145 -46.596,31.478 -74.805,31.26c-122.532,-0.945 -122.586,-0.726 -123.616,-1.117c-0.91,-0.346 -1.664,-1.293 -1.657,-2.433c0.018,-2.906 0.223,-35.906 0.294,-36.322c0.184,-1.067 1.136,-2.072 2.487,-2.072c61.758,-0.019 61.748,1.188 123.505,0.858c2.087,-0.011 17.309,0.18 32.577,-9.442c16.964,-10.691 23.415,-25.586 25.752,-32.38Zm38.517,-20.249l-0.009,-0c-0.176,-9.414 -7.652,-14.864 -14.863,-14.863c-362.093,0.051 -362.099,0.097 -362.631,0.013c-1.382,-0.219 -2.651,-1.438 -2.671,-3.128c-0.08,-6.749 -0.334,-26.041 14.341,-45.543c13.681,-18.181 35.169,-28.132 56.095,-28.135c28.68,-0.005 57.359,0.002 86.039,-0.003l-0.001,-29.588c-84.921,-0.006 -84.921,-0.172 -90.754,0.122c-53.052,2.674 -95.345,46.52 -95.365,100.37c-0.007,20.306 -0.153,20.308 0.091,22.453c0.834,7.321 7.05,13.179 14.764,13.201l359.583,0.772c1.298,-0 2.634,1.211 2.196,2.93c-0.825,3.239 -2.57,7.276 -2.836,7.892c-10.599,24.534 -34.863,40.407 -61.624,40.281c-40.08,-0.188 -80.159,-0.381 -120.239,-0.568l-0.114,30.866c119.386,0.466 119.392,0.803 127.438,0.234c24.33,-1.721 47.243,-12.517 64.086,-30.408c27.495,-29.204 26.43,-63.364 26.474,-66.898Z"/></g></svg>