<svg width="482" height="35" viewBox="0 0 482 35" fill="none" xmlns="http://www.w3.org/2000/svg">
<path d="M23.0504 3.9099H13.3666V33.8356H9.66209V3.9099H0V0.558557H23.0504V3.9099Z" fill="#007B77"/>
<path d="M67.6737 33.8356H63.2542L57.6216 24.4691C56.4229 22.464 55.3325 21.1535 54.3504 20.5377C53.3683 19.9075 52.2201 19.5925 50.9058 19.5925H47.5912V33.8356H43.9084V0.558557H53.7871C56.8634 0.558557 59.3114 1.34626 61.1312 2.92168C62.9509 4.48278 63.8608 6.64539 63.8608 9.40953C63.8608 14.0069 61.3839 16.993 56.4301 18.3679V18.4539C57.3544 18.8549 58.1127 19.3776 58.7048 20.0221C59.3114 20.6666 60.2141 21.9413 61.4128 23.8461L67.6737 33.8356ZM47.5912 3.95286V16.1981H53.0722C55.1086 16.1981 56.7695 15.6109 58.0549 14.4365C59.3403 13.2478 59.983 11.6724 59.983 9.71029C59.983 7.90573 59.398 6.49501 58.2282 5.47815C57.0583 4.46129 55.3541 3.95286 53.1155 3.95286H47.5912Z" fill="#007B77"/>
<path d="M161.08 33.8356H156.444L138.939 6.96048C138.549 6.33031 138.203 5.66434 137.899 4.96256H137.769C137.885 5.65002 137.943 7.1395 137.943 9.43102V33.8356H134.238V0.558557H139.134L156.162 27.1545C157.029 28.5294 157.483 29.2884 157.527 29.4316H157.613C157.455 28.3289 157.375 26.6603 157.375 24.4261V0.558557H161.08V33.8356Z" fill="#007B77"/>
<path d="M183.952 28.0782C184.891 28.9232 186.242 29.6322 188.004 30.205C189.78 30.7636 191.419 31.0429 192.921 31.0429C197.803 31.0429 200.244 29.2813 200.244 25.7581C200.244 24.7698 199.991 23.889 199.485 23.1157C198.98 22.3423 198.294 21.6763 197.427 21.1177C196.575 20.5449 194.885 19.6139 192.358 18.325C188.718 16.4774 186.415 14.8662 185.447 13.4913C184.48 12.1164 183.996 10.5625 183.996 8.82949C183.996 6.15129 185.093 4.01015 187.289 2.40609C189.484 0.80203 192.242 0 195.564 0C198.915 0 201.291 0.393854 202.692 1.18156V5.4137C200.727 4.06744 198.193 3.39431 195.088 3.39431C192.965 3.39431 191.231 3.84545 189.888 4.74773C188.545 5.63569 187.874 6.88887 187.874 8.50725C187.874 9.50979 188.105 10.3834 188.567 11.1282C189.043 11.8586 189.686 12.4959 190.495 13.0402C191.304 13.5844 192.878 14.4365 195.218 15.5966C198.511 17.215 200.814 18.7976 202.128 20.3444C203.443 21.8768 204.1 23.5954 204.1 25.5003C204.1 28.336 203.06 30.5273 200.98 32.074C198.9 33.6208 195.99 34.3942 192.25 34.3942C191.109 34.3942 189.621 34.208 187.787 33.8356C185.967 33.4633 184.689 33.0121 183.952 32.4822V28.0782Z" fill="#007B77"/>
<path d="M243.307 3.9099H230.114V15.6396H242.332V18.9909H230.114V33.8356H226.431V0.558557H243.307V3.9099Z" fill="#595959"/>
<path d="M282.904 33.8356H265.27V0.558557H282.146V3.9099H268.953V15.2314H281.15V18.5828H268.953V30.4843H282.904V33.8356Z" fill="#595959"/>
<path d="M327.723 32.4178C325.253 33.7354 322.169 34.3942 318.472 34.3942C313.764 34.3942 309.965 32.8546 307.077 29.7754C304.203 26.6961 302.766 22.7146 302.766 17.8309C302.766 12.7036 304.347 8.44996 307.51 5.06998C310.673 1.68999 314.782 0 319.837 0C323.014 0 325.643 0.458303 327.723 1.37491V5.32777C325.311 4.01015 322.653 3.35134 319.75 3.35134C315.764 3.35134 312.58 4.68328 310.197 7.34717C307.828 10.0111 306.644 13.434 306.644 17.616C306.644 21.5832 307.756 24.82 309.98 27.3263C312.204 29.8327 315.186 31.0858 318.927 31.0858C322.307 31.0858 325.239 30.3411 327.723 28.8516V32.4178Z" fill="#595959"/>
<path d="M369.725 3.9099H360.041V33.8356H356.336V3.9099H346.674V0.558557H369.725V3.9099Z" fill="#595959"/>
<path d="M394.265 33.8356H390.583V0.558557H394.265V33.8356Z" fill="#595959"/>
<path d="M443.46 0.558557L430.981 33.8356H426.93L414.712 0.558557H418.828L428.273 27.1545C428.562 27.9708 428.786 28.9447 428.945 30.0761H429.053C429.154 29.1738 429.407 28.1856 429.812 27.1115L439.474 0.558557H443.46Z" fill="#595959"/>
<path d="M481.519 33.8356H463.884V0.558557H480.761V3.9099H467.567V15.2314H479.764V18.5828H467.567V30.4843H481.519V33.8356Z" fill="#595959"/>
<path d="M114.646 34.3945L101.708 2.29327H97.507L84.8379 34.3945H89.1058L98.8997 8.73839C99.1992 7.95089 99.4313 7.0114 99.596 5.91995H99.7084C99.8132 6.79035 100.075 7.74365 100.495 8.77984L110.513 34.3945H114.646Z" fill="#007B77"/>
</svg>
